{"title":"Murder 3 2013 Hindi Best CamRip New Source Sample Included ~ rDX","uid":8149128,"size":736120446,"categoryP":"video","categoryS":"movies","magnet":"?xt=urn:btih:2919180be64d3b95c06d18266738aa2ccc954bce&amp;dn=Murder+3+2013+Hindi+Best+CamRip+New+Source+Sample+Included+%7E+rDX&amp;tr=udp%3A%2F%2Ftracker.openbittorrent.com%3A80&amp;tr=udp%3A%2F%2Fopen.demonii.com%3A1337&amp;tr=udp%3A%2F%2Ftracker.coppersurfer.tk%3A6969&amp;tr=udp%3A%2F%2Fexodus.desync.com%3A6969","seeders":1,"leechers":0,"uploader":"basicssom","files":2,"time":1360998369,"description":"Murder 3 2013 Hindi Movies Best CamRip New Source Sample Included ~ rDX\n\nScreen Shots :\n &lt;a href=&quot;\nhttp://myimghosting.serveftp.com/13/Murder3.html&quot; rel=&quot;nofollow&quot; target=&quot;_NEW&quot;&gt;\nhttp://myimghosting.serveftp.com/13/Murder3.html&lt;/a&gt;\n &lt;a href=&quot;\nhttp://myimghost.cwahi.net/Murder3.html&quot; rel=&quot;nofollow&quot; target=&quot;_NEW&quot;&gt;\nhttp://myimghost.cwahi.net/Murder3.html&lt;/a&gt;\n\n\nFormat                                   : AVI\nFormat/Info                              : Audio Video Interleave\nFile size                                : 690 MiB\nDuration                                 : 1h 59mn\nOverall bit rate                         : 806 Kbps\nWriting library                          : MPlayer\n\nVideo\nID                                       : 0\nFormat                                   : MPEG-4 Visual\nFormat profile                           : Advanced Simple@L5\nFormat settings, BVOP                    : 2\nFormat settings, QPel                    : No\nFormat settings, GMC                     : No warppoints\nFormat settings, Matrix                  : Default (H.263)\nCodec ID                                 : XVID\nCodec ID/Hint                            : XviD\nDuration                                 : 1h 59mn\nBit rate                                 : 673 Kbps\nWidth                                    : 576 pixels\nHeight                                   : 272 pixels\nDisplay aspect ratio                     : 2.118\nFrame rate                               : 25.000 fps\nColor space                              : YUV\nChroma subsampling                       : 4:2:0\nBit depth                                : 8 bits\nScan type                                : Progressive\nCompression mode                         : Lossy\nBits/(Pixel*Frame)                       : 0.172\nStream size                              : 576 MiB (83%)\nWriting library                          : XviD 1.2.1 (UTC 2008-12-04)\n\nAudio\nID                                       : 1\nFormat                                   : AC-3\nFormat/Info                              : Audio Coding 3\nMode extension                           : CM (complete main)\nFormat settings, Endianness              : Big\nCodec ID                                 : 2000\nDuration                                 : 1h 59mn\nBit rate mode                            : Constant\nBit rate                                 : 128 Kbps\nChannel(s)                               : 2 channels\nChannel positions                        : Front: L R\nSampling rate                            : 48.0 KHz\nBit depth                                : 16 bits\nCompression mode                         : Lossy\nStream size                              : 110 MiB (16%)\nAlignment                                : Split accross interleaves\nInterleave, duration                     : 500 ms (12.50 video frames)\nInterleave, preload duration             : 500 ms","torrent":{"xt":"urn:btih:2919180be64d3b95c06d18266738aa2ccc954bce","amp;dn":"Murder+3+2013+Hindi+Best+CamRip+New+Source+Sample+Included+%7E+rDX","amp;tr":["udp%3A%2F%2Ftracker.openbittorrent.com%3A80","udp%3A%2F%2Fopen.demonii.com%3A1337","udp%3A%2F%2Ftracker.coppersurfer.tk%3A6969","udp%3A%2F%2Fexodus.desync.com%3A6969"],"infoHash":"2919180be64d3b95c06d18266738aa2ccc954bce","infoHashBuffer":{"type":"Buffer","data":[41,25,24,11,230,77,59,149,192,109,24,38,103,56,170,44,204,149,75,206]},"announce":[],"urlList":[]}}